<?xml version="1.0" encoding="UTF-8"?>
<svg xmlns="http://www.w3.org/2000/svg" style="display:none">
  <symbol id="icon-overview" viewBox="0 0 24 24">
    <rect x="3" y="3" width="7" height="7" rx="1" fill="currentColor"/>
    <rect x="14" y="3" width="7" height="7" rx="1" fill="currentColor"/>
    <rect x="3" y="14" width="7" height="7" rx="1" fill="currentColor"/>
    <rect x="14" y="14" width="7" height="7" rx="1" fill="currentColor"/>
  </symbol>
  <symbol id="icon-reports" viewBox="0 0 24 24">
    <path d="M3 3v18h18" stroke="currentColor" stroke-width="2" fill="none"/>
    <path d="M7 13v6" stroke="currentColor" stroke-width="2"/>
    <path d="M12 9v10" stroke="currentColor" stroke-width="2"/>
    <path d="M17 5v14" stroke="currentColor" stroke-width="2"/>
  </symbol>
  <symbol id="icon-alerts" viewBox="0 0 24 24">
    <path d="M10 3h4l6 11v6H4v-6z" stroke="currentColor" stroke-width="1.5" fill="none"/>
    <circle cx="12" cy="18" r="1" fill="currentColor"/>
  </symbol>
  <symbol id="icon-shortcuts" viewBox="0 0 24 24">
    <path d="M12 2v20M2 12h20" stroke="currentColor" stroke-width="2"/>
  </symbol>
  <symbol id="icon-staff" viewBox="0 0 24 24">
    <circle cx="9" cy="8" r="3" fill="currentColor"/>
    <path d="M2 21c1-4 7-5 7-5s6 1 7 5" stroke="currentColor" stroke-width="1" fill="none"/>
  </symbol>
  <symbol id="icon-billing" viewBox="0 0 24 24">
    <rect x="3" y="5" width="18" height="14" rx="2" stroke="currentColor" stroke-width="1.5" fill="none"/>
    <path d="M3 10h18" stroke="currentColor" stroke-width="1.5"/>
  </symbol>
  <symbol id="icon-ops" viewBox="0 0 24 24">
    <path d="M3 13l4-4 8 8 6-6" stroke="currentColor" stroke-width="2" fill="none"/>
  </symbol>
</svg>
